Coordinates
version=1
nRows=17
nColumns=36
inDegrees=yes

Units are S.I. units (second, meters, Newtons, ...)
If the header above contains a line with 'inDegrees', this indicates whether rotational values are in degrees (yes) or radians (no).

endheader
time	pelvis_tilt	pelvis_list	pelvis_rotation	pelvis_tx	pelvis_ty	pelvis_tz	hip_flexion_r	hip_adduction_r	hip_rotation_r	knee_angle_r	knee_angle_r_beta	ankle_angle_r	subtalar_angle_r	mtp_angle_r	hip_flexion_l	hip_adduction_l	hip_rotation_l	knee_angle_l	knee_angle_l_beta	ankle_angle_l	subtalar_angle_l	mtp_angle_l	lumbar_extension	lumbar_bending	lumbar_rotation	arm_flex_r	arm_add_r	arm_rot_r	elbow_flex_r	pro_sup_r	arm_flex_l	arm_add_l	arm_rot_l	elbow_flex_l	pro_sup_l
      1.21250000	    -42.93761960	      3.39565084	      2.16542818	     -0.86621700	      1.08890650	     -0.11272428	     69.55447166	     -0.60896327	     12.66413238	     63.81645386	      1.11380724	     30.28678576	    -21.82245259	     -7.49999987	     68.16817656	      9.08058940	      6.69409779	     61.71222678	      1.07708155	     26.61294492	    -24.68176990	     -7.49999987	    -25.44647971	      2.55088667	     -2.50602426	     21.92380993	     -3.51493637	    -13.47451333	     22.72730033	     80.42851376	     25.62921402	     -2.98086668	     -0.36026771	     17.48972168	     66.94132241
      1.21666670	    -42.44198729	      3.42975923	      1.94922942	     -0.86612761	      1.08814485	     -0.11133201	     69.28564030	     -0.30933019	     12.59738466	     64.21448298	      1.12075416	     30.12766537	    -22.10368224	     -7.49999987	     67.88923349	      8.74094353	      6.53544550	     62.29254842	      1.08721007	     26.97441674	    -24.09184666	     -7.49999987	    -26.15854969	      2.50327938	     -2.38760215	     24.50993363	     -3.36553881	    -12.70748769	     23.29998522	     89.76293414	     28.02637535	     -2.83202238	     -5.12513022	     18.86391843	     77.01044890
      1.22083330	    -42.47905639	      3.41183281	      1.90025296	     -0.86980661	      1.08975728	     -0.10552495	     69.74703115	      0.19745810	     12.50835659	     64.60094459	      1.12749918	     29.65041553	    -22.84709656	     -7.49999987	     68.52176282	      8.14206631	      6.17212844	     63.22512650	      1.10348663	     26.43495454	    -24.33579442	     -7.49999987	    -26.29397973	      1.97148058	     -2.06665856	     26.86914177	     -2.62146544	    -12.34903667	     24.17686171	     89.03838688	     31.18938322	     -3.20785367	     -5.21667358	     19.71725214	     76.48573217
      1.22500000	    -42.60267886	      3.41984265	      2.07240207	     -0.86764795	      1.08988464	     -0.10650183	     70.10755747	      0.29903498	     12.46970835	     64.86502693	      1.13210829	     29.56093485	    -22.96513950	     -7.49999987	     68.94664247	      8.00093525	      6.04167012	     63.83233033	      1.11408433	     25.95600297	    -24.13113838	     -7.49999987	    -26.09674705	      1.79620846	     -1.95613052	     28.98656296	     -2.21889020	    -12.18927360	     24.70728267	     89.12076319	     33.88253302	     -3.19980280	     -5.20883799	     20.46347495	     76.53342469
      1.22916670	    -42.26854815	      3.66579545	      1.74823810	     -0.86418761	      1.08798611	     -0.10288545	     69.97234892	      0.74526966	     12.76995470	     65.17241977	      1.13747331	     29.26289167	    -23.11403982	     -7.49999987	     68.67428458	      7.64257422	      5.82295290	     64.04953554	      1.11787528	     25.77115599	    -23.90732414	     -7.49999987	    -26.50103043	      1.11339277	     -1.18777438	     31.34699889	     -1.94730506	    -11.73600219	     24.59894564	     89.57572576	     36.94586872	     -3.08336349	     -5.33150164	     20.86764261	     76.73299723
      1.23333330	    -41.73565901	      3.92648930	      1.82131965	     -0.85724819	      1.08557724	     -0.10640777	     69.56194953	      0.49262980	     12.68070500	     66.16240757	      1.15475185	     29.33362160	    -23.26696618	     -7.49999987	     67.84821736	      7.84057197	      5.51463864	     64.02041539	      1.11736704	     26.41504120	    -23.12027719	     -7.49999987	    -26.80883345	      0.89609887	     -1.01976897	     33.36868723	     -1.81650003	    -11.37609927	     24.50168843	     90.05581101	     39.39206820	     -2.52353029	     -5.51031730	     21.32776652	     76.91757075
      1.23750000	    -41.74049771	      3.93443777	      1.91695511	     -0.85715445	      1.08002447	     -0.10573946	     69.85791757	      0.35726322	     12.55447114	     67.14880132	      1.17196767	     29.63255754	    -23.75717462	     -7.49999987	     68.18040115	      7.78959545	      5.14880769	     65.14337794	      1.13696643	     27.29367983	    -22.83060741	     -7.49999987	    -26.06062026	      0.82389401	     -1.08103283	     35.17731569	     -1.50393171	    -11.85522570	     24.69332036	     95.31714339	     41.53044386	     -1.79063871	     -8.71134925	     21.84391641	     80.46569533
      1.24166670	    -41.88058158	      3.91014858	      1.80167126	     -0.85360487	      1.08232168	     -0.10363441	     69.92845944	      0.42857720	     12.29223513	     67.53332373	      1.17867885	     29.70726855	    -23.83572165	     -7.49999987	     68.36716963	      7.77598868	      5.37202310	     65.60296193	      1.14498768	     27.26781042	    -22.82332410	     -7.49999987	    -25.39871163	      0.59623010	     -1.07378550	     36.92458942	     -0.98780416	    -11.76040474	     25.23301914	     95.32559141	     43.66392412	     -1.51193731	     -8.69872776	     22.50399350	     80.46313105
      1.24583330	    -41.87705309	      3.84984605	      2.09327085	     -0.84859355	      1.07936339	     -0.10523661	     69.88489443	      0.23212895	     12.10011256	     68.27895568	      1.19169259	     29.75375914	    -24.18345514	     -7.49999987	     67.97064805	      8.02641343	      5.53400201	     65.67926367	      1.14631940	     27.40159225	    -22.57251184	     -7.49999987	    -24.84850118	      0.65599760	     -1.16730591	     38.60612792	     -0.76394777	    -11.73566337	     25.64534796	     95.32645621	     45.75397213	     -0.97912543	     -8.80806715	     23.03478389	     80.41205934
      1.25000000	    -41.34136393	      3.59744370	      2.00431278	     -0.84743250	      1.08337627	     -0.10931859	     69.02465121	      0.11296341	     11.68412396	     67.93523572	      1.18569354	     28.66660501	    -25.40828325	     -7.49999987	     67.28005374	      7.96747112	      5.57900408	     65.81091221	      1.14861710	     27.47737219	    -22.27847725	     -7.49999987	    -25.49235293	      1.11919762	     -1.17039831	     41.38658459	     -0.56696931	    -11.68901940	     25.79460673	     95.30656008	     48.71689495	     -0.10136239	     -9.91915551	     23.12921080	     79.94840633
      1.25416670	    -41.25739429	      3.23917879	      1.76167144	     -0.84586982	      1.08089468	     -0.11074450	     68.55314726	     -0.01720815	     11.13078260	     67.43551007	      1.17697168	     29.05360652	    -24.99362381	     -7.49999987	     67.38507889	      7.77304370	      5.62777262	     66.38409461	      1.15862102	     27.27560085	    -22.56628522	     -7.49999987	    -25.08771723	      1.67518025	     -1.15384892	     43.77565945	     -0.29560635	    -10.87475689	     25.86396124	     92.27361615	     51.00118980	      0.68677121	    -11.61665750	     23.62538257	     77.03189125
      1.25833330	    -41.54482358	      3.31831876	      1.49417901	     -0.83893350	      1.07968588	     -0.11294052	     68.33917502	     -0.25887334	     11.05072916	     67.19591930	      1.17279004	     29.12645435	    -25.03116273	     -7.49999987	     67.49219405	      7.71550281	      5.13064994	     66.60193570	      1.16242307	     27.45720279	    -22.55467299	     -7.49999987	    -24.08772824	      1.94765430	     -1.14809526	     45.57026045	      0.06583670	    -10.76074055	     26.43534800	     92.29987246	     52.71482285	      1.23547157	    -11.59178170	     24.19660792	     77.02491074
      1.26250000	    -41.09141583	      3.41350202	      1.13178943	     -0.83411084	      1.08218798	     -0.11725561	     67.45444748	      0.03847645	     11.79910189	     67.12508130	      1.17155368	     28.53044990	    -25.88099966	     -7.49999987	     66.71551938	      7.63123629	      4.67104339	     66.73664668	      1.16477422	     28.14110956	    -21.83829397	     -7.49999987	    -23.97306824	      2.23328589	     -0.87627222	     47.58790347	      0.09596754	    -10.49383101	     26.87211805	     92.39878204	     54.79741714	      2.14311072	    -12.90518670	     24.80468364	     76.59350802
      1.26666670	    -41.42852624	      3.69636134	      0.14181881	     -0.83035348	      1.07807208	     -0.12011398	     67.83961828	     -0.10165814	     11.69208598	     67.46847969	      1.17754711	     28.92839129	    -24.13295601	     -7.49999987	     66.92715792	      7.47255892	      4.19118205	     67.14383114	      1.17188093	     28.72713578	    -21.74633221	     -7.49999987	    -22.51682887	      2.37087702	     -0.33630297	     49.29294531	      0.39002073	    -10.09361602	     27.52586682	     88.58879861	     56.21763443	      2.85000026	    -14.37229205	     26.00895495	     73.85943915
      1.27083330	    -41.53123667	      3.91127698	     -0.35593654	     -0.82858863	      1.07344092	     -0.11910861	     67.98508417	     -0.18568890	     11.70612482	     67.90602063	      1.18518364	     29.39183011	    -23.72866029	     -7.49999987	     66.94318541	      7.61315309	      4.03709722	     67.64115479	      1.18056086	     29.44027068	    -22.15103132	     -7.49999987	    -21.41136714	      2.34616358	     -0.03824943	     51.19719617	      0.87044556	     -9.86769034	     28.13205833	     88.59689668	     58.01791837	      3.20993120	    -14.35136649	     26.73241166	     73.85419234
      1.27500000	    -41.29753958	      4.77793149	     -0.33952020	     -0.82180775	      1.07357044	     -0.12277617	     67.72820317	     -0.50840778	     13.01558533	     68.66303959	      1.19839612	     30.60722634	    -22.85644904	     -7.49999987	     66.40967552	      8.79693289	      3.78203360	     67.75268351	      1.18250740	     30.34308366	    -22.33024348	     -7.49999987	    -20.25554687	      1.71614987	     -0.26610638	     52.75315067	      1.18867427	     -9.49248663	     28.40778740	     88.70555554	     59.47288069	      3.73637685	    -14.39878128	     27.49105680	     73.85401237
      1.27916670	    -40.67283403	      5.89053600	     -0.34220261	     -0.81482221	      1.07010030	     -0.12284882	     67.20466476	     -1.00819754	     14.35272626	     69.86778446	      1.21942288	     31.77683395	    -22.16527975	     -7.49999987	     65.29052029	      9.87783327	      3.15631688	     67.75131120	      1.18248345	     30.94104553	    -22.46974407	     -7.49999987	    -19.60620410	      0.67714461	     -0.70635733	     54.48388444	      1.81598588	     -8.84862137	     28.63089312	     88.80066366	     61.08256909	      3.77713097	    -14.24783954	     28.39122819	     73.85625012
